#include "note.h"

Note c_scale[] = {
{NOTE_C4, 4},
{NOTE_D4, 8},
{NOTE_E4, 8},
{NOTE_F4, 8},
{NOTE_G4, 8},
{NOTE_A4, 8},
{NOTE_B4, 8},
{NOTE_C5, 4},
{NOTE_B4, 8},
{NOTE_A4, 8},
{NOTE_G4, 8},
{NOTE_F4, 8},
{NOTE_E4, 8},
{NOTE_D4, 8},
{NOTE_C4, 4}
};

// C1 to DS8
Note noteRunThrough[] = {
{NOTE_C1, 4},
{NOTE_CS1, 4},
{NOTE_D1, 4},
{NOTE_DS1, 4},
{NOTE_E1, 4},
{NOTE_F1, 4},
{NOTE_FS1, 4},
{NOTE_G1, 4},
{NOTE_GS1, 4},
{NOTE_A1, 4},
{NOTE_AS1, 4},
{NOTE_B1, 4},
{NOTE_C2, 4},
{NOTE_CS2, 4},
{NOTE_D2, 4},
{NOTE_DS2, 4},
{NOTE_E2, 4},
{NOTE_F2, 4},
{NOTE_FS2, 4},
{NOTE_G2, 4},
{NOTE_GS2, 4},
{NOTE_A2, 4},
{NOTE_AS2, 4},
{NOTE_B2, 4},
{NOTE_C3, 4},
{NOTE_D3, 4},
{NOTE_DS3, 4},
{NOTE_E3, 4},
{NOTE_F3, 4},
{NOTE_FS3, 4},
{NOTE_G3, 4},
{NOTE_GS3, 4},
{NOTE_A3, 4},
{NOTE_AS3, 4},
{NOTE_B3, 4},
{NOTE_C4, 4},
{NOTE_D4, 4},
{NOTE_DS4, 4},
{NOTE_E4, 4},
{NOTE_F4, 4},
{NOTE_FS4, 4},
{NOTE_G4, 4},
{NOTE_GS4, 4},
{NOTE_A4, 4},
{NOTE_AS4, 4},
{NOTE_B4, 4},
{NOTE_C5, 4},
{NOTE_D5, 4},
{NOTE_DS5, 4},
{NOTE_E5, 4},
{NOTE_F5, 4},
{NOTE_FS5, 4},
{NOTE_G5, 4},
{NOTE_GS5, 4},
{NOTE_A5, 4},
{NOTE_AS5, 4},
{NOTE_B5, 4},
{NOTE_C6, 4},
{NOTE_D6, 4},
{NOTE_DS6, 4},
{NOTE_E6, 4},
{NOTE_F6, 4},
{NOTE_FS6, 4},
{NOTE_G6, 4},
{NOTE_GS6, 4},
{NOTE_A6, 4},
{NOTE_AS6, 4},
{NOTE_B6, 4},
{NOTE_C7, 4},
{NOTE_D7, 4},
{NOTE_DS7, 4},
{NOTE_E7, 4},
{NOTE_F7, 4},
{NOTE_FS7, 4},
{NOTE_G7, 4},
{NOTE_GS7, 4},
{NOTE_A7, 4},
{NOTE_AS7, 4},
{NOTE_B7, 4},
{NOTE_C8, 4},
{NOTE_D8, 4},
{NOTE_DS8, 4},

};





